<svg xmlns="http://www.w3.org/2000/svg" baseProfile="tiny" width="12502.7" height="7551.9" viewBox="0 0 330800 199813" preserveAspectRatio="xMidYMid" fill-rule="evenodd" clip-path="url(#A)" stroke-width="28.2" stroke-linejoin="round" xmlns:v="https://vecta.io/nano"><defs><clipPath id="A"><path d="M0 0h330800v199813H0z"/></clipPath></defs><g clip-path="url(#A)"><g fill="#5386c5"><path d="M113101 8153v8153l6908-6879 8174-8153L129453 0h-8178-8174v8153zM199044 32c7 14 3666 3694 8136 8174l8121 8146v-3281l25-8178 21-4893h-8157l-8146 32zM71 57080v52635h11448 11448l7-25457 10-25453 5020 4992 5024 4995h14414l23231 25 8809 21v20440 20437h11430 11430V57080 4445H90912 79482v20761 20761H56255 33028l-5031 5035-5027 5037-3-25799V4445H11519 71v52635zm121684-43996l-8654 8643v35367 35362l8629 8612 8633 8611h33852 33853l8612-8618 8615-8615 24-35367 22-35369-8644-8615-8643-8619-33824-17-33825-18-8650 8643zm70722 43995v29775h-28258-28258V57079 27305h28258 28258v29774zm36088-7v52642h11430 11430l7-25470 11-25471 5034 5009 5031 5010h14425l23216 25 8792 21v20440 20436h11430 11430V87764 65811l-4152-4152-4152-4153 4152-4173 4148-4173 4-13724V21713l-8618-8618-8619-8619-42499-21-42500-21v52638zm79376-20436v9331h-23143l-23241 60c-416 261-1810 1623-4851 4738-3580 3665-5143 5221-5253 5221-14 0-28-6452-28-14341V27305h28258 28258v9331z"/></g><path fill="#f33" d="M0 124620v1464h165400 165401v-1464-1465H165400 0v1465z"/><g fill="#334573"><path d="M51185 138502c-300 38-533 229-589 479-46 205 35 484 197 681 187 233 229 261 660 484 882 451 1284 882 1393 1492 50 264 50 1104 0 1563-218 2116-913 5087-2434 10400l-3531 13547-6894 27464c-406 1598-501 2162-462 2752 60 987 501 1672 1344 2081 656 317 1203 388 2822 356l3811-35 2797-46c177-42 321-187 448-451 159-325 88-632-190-858-163-130-297-197-611-310-370-134-511-212-709-395-307-290-695-939-843-1418-67-223-81-343-81-741 0-261 21-596 49-741 50-296 293-1252 498-1976l3542-14093 2999-11819 2543-10213 1923-7514 882-3246 512-2046c388-1478 501-2208 465-2991-32-741-211-1217-607-1613-257-257-557-448-927-582-614-222-480-218-4841-229-2184-4-4057 4-4166 18zm238323 765c-38 4-254 18-479 29l-410 24-141 445c-81 247-218 766-310 1154l-653 2646-335 1658c-64 748 215 1200 871 1415 286 95 314 99 1087 95l2699-3 2516-29c536-21 606-28 606-81 0-63 106-494 579-2332 635-2473 829-3687 681-4202-109-367-448-642-960-773-137-35-801-46-2928-49-1514-4-2784 0-2823 3zm-134373 4244c-561 53-858 173-1172 469-250 237-416 498-881 1383l-1419 2205c-1150 1408-3566 3225-5708 4301l-2462 1040c-1045 395-1383 575-1743 918-353 338-568 702-755 1273-208 628-430 1891-406 2276 39 522 346 769 1048 846 300 32 512 28 1334-39 1061-81 1577-74 1855 22 159 56 166 63 166 201 0 296-265 1393-1094 4526l-1058 4230-1411 5754-1821 7091-1658 6445-1566 7705c0 2981 1316 4805 3810 5270 681 127 2198 321 2717 346l5697 4 6386-212c1510-303 2667-1094 3655-2487 557-783 857-1708 1319-4036 32-166 194-836 356-1492 420-1694 544-2456 477-2925-32-236-117-444-191-469-78-28-1125-123-1154-106-49 32-247 399-388 727-208 480-409 751-942 1270-1040 1012-1855 1573-2727 1877-719 250-1224 324-3351 490-879 67-2731 57-3281-18-886-123-1690-335-2036-539-899-526-1242-1983-892-3789 226-1161 1118-4703 2452-9719l2596-10337 2004-7267c286-611 900-1390 1376-1754 501-377 1157-617 1933-702 388-42 1302-31 3327 39l3165-88c1386-169 2194-547 2712-1270 276-388 463-879 703-1852l352-1288 304-1129c130-624 46-1100-223-1238-151-81-582-141-1337-198-765-53-6025-53-8498 0l-1542 29c-4-4 381-1546 857-3426 935-3708 949-3778 801-4064-42-85-127-166-226-219-141-81-197-88-649-95-271-4-635 4-811 21zm61401 6667c-2410 124-3997 332-5539 731-4047 1040-7169 3185-9296 6378-494 744-801 1291-1298 2311-3705 7634-7031 18898-7663 25947-282 3179-35 5302 889 7655 551 1394 1009 2117 1884 2964 1129 1090 2752 2032 4717 2730 1298 466 2667 695 5122 858 1069 70 4417 60 5274-18 2456-222 4742-709 6615-1404 3803-1408 6534-3729 8471-7197 2363-4233 4646-11077 6614-19823 664-2939 1002-5002 1186-7214 70-882 60-3348-18-4022-279-2346-861-3962-1937-5391-310-412-1249-1337-1697-1665-1051-779-2085-1302-3517-1781-1520-512-3094-812-5186-992l-4621-67zm2307 7391c2371 215 3944 787 5002 1810 875 847 1337 1891 1478 3341 50 522 25 1633-56 2222-434 3253-2120 10295-3637 15170-1334 4286-2484 7045-3623 8679-1037 1488-1835 2081-3606 2688-1273 434-3510 727-5556 727-737 0-963-11-1552-92-2025-275-3207-565-4181-1027-1415-674-2155-1721-2385-3372-67-473-56-1662 18-2294 226-1908 1199-6346 2314-10565 1648-6227 3281-10898 4569-13068 649-1093 1584-2060 2646-2734 1072-681 2497-1178 3986-1397l1588-155c402-32 2441 14 2995 67zm-136255-7295l-4480 170c-3119 345-6061 1809-8361 4166-992 1016-1740 2021-2618 3524-1672 2861-3239 6813-4667 11766-833 2889-1987 7620-2738 11236-455 2184-670 3545-829 5203-78 808-106 2622-53 3369 176 2484 801 4386 1947 5934 283 381 918 1048 1302 1369 970 808 2173 1440 3475 1817 1521 444 3644 734 6311 864l11099-180c2847-278 4985-945 6209-1933 586-473 932-899 1238-1520 350-713 519-1285 1105-3761l359-1305 364-1560c56-698-67-1129-392-1351-123-88-180-102-381-102-501 0-1016 363-1764 1252-437 522-808 865-1231 1147-1411 938-3394 1485-6212 1711-1479 120-5924 99-7938-39-4248-289-6562-1461-6950-3524-155-815-265-2646-184-3070l501-2645 618-3052 370-1570c254-1154 462-1965 561-2198 64-148 81-166 187-166 64 0 473-24 910-53 1623-102 3366-134 6231-109l16584 53c953-71 1570-300 2166-815 678-582 1387-1817 1891-3291 896-2629 1528-6516 1528-9427l-163-2268c-599-3793-2123-6350-4688-7864-1810-1072-4100-1616-7409-1767l-3898-11zm2791 7105c1076 81 1908 332 3094 928 568 286 871 487 1174 794 558 557 956 1340 1157 2279 205 952 194 1813-49 3281-469 2854-617 3450-938 3739-177 159-258 180-702 166l-8485-7c-5532 4-8209-7-8410-32-741-95-858-345-554-1220 84-254 208-579 268-724l264-687 1376-3574c741-1538 1634-2600 2879-3426 1185-790 2572-1245 4403-1453 677-78 3785-124 4523-64zm-58700-6898l-2117 49-5126 300c-1259 212-2258 536-3411 1104-914 452-2145 1224-2858 1796-2885 2314-5210 6378-7281 12746l-2703 9426-1813 8619-395 3739c-109 3747 953 6597 3179 8545 1968 1721 4501 2579 8361 2833 3136 204 8354 236 10813 70 3132-215 5538-712 7038-1457 1227-607 1922-1425 2459-2900 243-670 793-2501 1171-3898 430-1584 536-2219 444-2614-141-600-479-840-956-684-451 151-963 553-2102 1651-551 529-699 649-1020 836-1203 702-2388 1040-4512 1284-2081 240-3567 321-5874 317-3231 0-5447-225-7147-719-960-283-1524-597-2064-1154-607-628-967-1386-1168-2480-67-349-78-536-78-1358 0-1500 166-2593 784-5239 300-1277 472-2071 673-3126 255-1305 371-1630 695-1912 374-332 974-392 3013-307l5592 46 7673 21 8897-381c1087-441 2106-2057 2847-4512 487-1609 879-3591 1182-5969 131-1030 162-1517 162-2522 4-1577-144-2787-511-4209-353-1387-879-2576-1598-3623-582-847-1351-1595-2283-2212-1806-1200-4050-1856-7020-2053l-2946-53zm1182 7140c1058 92 2300 529 3440 1210 342 205 829 667 1047 995 642 959 978 2424 861 3761l-571 3542c-131 677-293 1181-434 1372a790 790 0 0 1-268 215c-159 74-163 74-8908 53l-8749-18-159-74c-371-176-431-398-247-952 63-194 197-565 303-826l667-1781 653-1747c1273-3298 3524-5101 7027-5627l2568-155 2770 32zm231942-6818c-1700 145-2547 318-3651 745-935 363-1863 924-2734 1661l-2346 2283-445 529c-204 289-247 328-374 332-112 0-116-11-49-198 25-78 74-335 106-579l134-935c85-596 71-853-81-1301-134-399-289-685-568-1030-431-533-907-840-1510-971-289-60-540-74-1835-102-1520-32-2416-10-3185 81-325 39-392 39-494-7-148-67-790-70-1912-10-882 49-1083 84-1330 240-434 271-547 874-233 1234 141 159 268 223 840 420 970 332 1259 596 1453 1316 85 328 106 1274 35 1806-173 1302-1428 6700-2332 10019l-1365 5606-367 1432c-144 445-261 900-384 1528l-910 3835-597 2258-913 3686-1535 5874c-191 515-243 723-353 1362-134 779-317 1647-458 2145l-491 2046c-102 787 14 1859 254 2314 152 289 512 642 819 801 264 138 719 279 1146 353 205 35 755 42 2452 35l3027 28c1630 74 2773-95 3200-480 183-165 211-306 106-522-134-268-498-564-1521-1249-504-335-635-500-751-945-268-1041 38-2886 1224-7352l589-2240 688-2646 1464-5923 3634-13851c183-458 592-1284 864-1728 1559-2576 3764-4004 6865-4460l2995-176c2738 4 4089 180 5049 649 427 208 663 378 970 685 564 568 861 1294 928 2275 91 1351-268 3186-1672 8523l-2223 8890-1256 5081-1954 7796-688 2717c-438 1672-547 2691-371 3390 208 808 815 1284 1923 1496 815 158 1460 187 4586 190 3260 4 3253 4 3944-229 484-162 688-339 688-596 0-286-240-519-1104-1066-974-617-1164-808-1295-1280-70-265-95-1030-49-1588 74-885 169-1330 638-2963l2964-11748 1870-7585c2317-9253 2928-12132 2928-13857 0-1348-233-2442-759-3542-360-755-726-1281-1323-1891-610-635-1224-1073-2056-1471-1412-678-3197-1027-5793-1129l-5116-11zm-132180 180l-5909 116c-2311 120-3475 332-5296 967-1287 448-2078 804-2677 1207-596 398-2212 1855-3158 2839-1386 1447-2600 3260-3792 5659-1595 3214-2784 6671-4209 12242l-1277 5062c-1055 4343-1443 7042-1383 9649 49 2180 392 3792 1133 5327 592 1228 1294 2113 2381 3013 935 769 2438 1425 4307 1877 1969 476 4029 733 6721 846l5680-39c2653-130 4572-409 5962-867 1168-385 1841-773 2526-1457 437-438 670-755 928-1263 335-667 462-1069 970-3098l515-1905 480-2060c0-688-254-1009-801-1009-212 0-282 18-494 123-307 156-709 551-1203 1186-194 250-476 571-624 709-1119 1044-3101 1714-5878 1983-2177 211-5715 236-7655 56-3031-286-4876-977-5740-2149-614-829-896-2077-847-3735 46-1496 233-2745 819-5440l511-2435c1006-4949 2265-9112 3807-12587 751-1690 1513-3048 2335-4138 960-1281 1842-2039 2932-2512 1072-469 2635-818 4512-1013 1722-176 4431-218 6996-105 2071 88 2910 28 3637-261 642-258 1118-748 1503-1553 286-596 1041-2614 1231-3291 106-374 131-819 57-1041-117-349-424-593-872-695-695-159-3630-233-8128-208zm191012 47l-3510 120c-2339 155-4520 737-6509 1729-2375 1185-4110 2688-5842 5059-1599 2183-2960 4907-4195 8378-1330 3750-2678 8449-3531 12330-1154 5242-1472 7179-1521 9317-60 2664 445 4812 1580 6738 935 1584 2269 2752 4008 3507 2110 921 5415 1429 10365 1591l5204-35 4900-681c847-247 1817-646 2321-949 318-194 794-621 999-896 532-720 1030-2039 1499-3980l547-1947c423-1288 547-1972 462-2547-21-169-57-332-74-363-46-85-522-216-801-223-452-10-780 226-1238 893l-840 1058c-586 547-1743 1140-2907 1492-1408 427-3217 692-4703 695l-1040 39c-388 28-741 28-1401-3l-6350-551c-1598-342-2808-1146-3415-2272-268-497-452-1358-519-2469-63-1055 11-2004 230-2946 176-758 240-1097 423-2328l547-2805 511-2222c329-1524 417-1867 1062-4128 1214-4230 1715-5634 2632-7363l674-1315c751-1521 1679-2766 2653-3553 617-501 1478-1002 2381-1397 1013-441 1863-600 4128-773 420-35 1757-46 4833-46l4981-158c812-219 1539-840 1958-1676 477-945 1302-3277 1493-4219 102-501 109-477-166-558-942-282-2844-448-6079-532l-5750-11zm-121606 435c-67 7-568 32-1112 53-2130 85-3340 222-4452 511-1065 279-1898 646-2744 1210-533 360-738 544-2202 1958-1115 1080-1386 1366-1542 1602-102 159-218 307-257 328-67 35-251 50-251 21 0-10 25-116 50-240 92-398 310-1876 307-2092 0-116-35-338-74-493-311-1218-1323-2100-2618-2276-286-39-3637-88-5832-81-1323 3-2039 99-2406 324-120 75-345 389-448 628-91 205-63 441 67 575 120 124 417 286 879 473 977 399 1362 741 1527 1365 71 276 78 1066 15 1602-205 1676-667 3800-1503 6915l-865 3609-494 2018-670 2928-370 1675-1341 5451-956 3877c-67 222-131 491-141 600-32 317-81 518-261 1062-194 578-335 1139-886 3528l-913 3633c-526 1729-681 2332-865 3387-194 1115-247 2106-137 2522 236 911 1072 1464 2437 1609 262 25 1172 35 2869 28l3633-3c1387 14 1606-21 1877-293 194-194 219-575 57-896-106-201-297-325-868-547-660-257-935-473-1136-882-205-420-261-762-261-1573 0-741 46-1186 194-1993 159-847 550-2431 913-3705l1024-4233 3707-14775 738-2723c568-2279 829-3055 1372-4093 794-1513 1835-2709 3055-3510 1101-719 2505-1238 4057-1499 949-159 1239-173 3211-177l2212-77c1513-385 2205-1591 2974-5204 254-1196 268-1654 67-1894-152-184-321-226-949-233-311-7-621-4-688 0zm86694 391l-628 53c-329 43-357 53-505 184-205 180-303 370-303 603-4 423 300 720 1047 1027 445 179 674 317 911 543 250 236 412 497 539 868 92 261 99 321 99 829 0 642-10 712-402 2300l-1041 4667-1446 6192-808 3298-1697 7003-1538 6364-1037 4167-568 2222-992 5183c21 546 81 800 272 1206 215 445 720 854 1270 1020 346 102 1041 155 2706 197l6005-148c271-42 370-92 539-261 392-395 198-769-705-1348-805-515-1038-695-1147-878-243-406-342-850-342-1531 0-554 81-1069 349-2283 448-2004 547-2413 3496-14281l1482-5697 1905-7973c720-3383 1119-5091 1588-6773l667-2682c349-2106-223-3369-1733-3841-525-163-1704-219-5002-230-1486-7-2826-7-2981 0z"/></g></g></svg>